<svg xmlns="http://www.w3.org/2000/svg" viewBox="0 0 1159.45 719.32"><defs><style>.cls-1{fill:#513caa;}.cls-2{fill:#ed9a00;}</style></defs><g id="Layer_2" data-name="Layer 2"><g id="Layer_1-2" data-name="Layer 1"><path class="cls-1" d="M1159.12,369.64a186,186,0,0,0-7.63-42.22,212,212,0,0,0-15.9-38.51,232.52,232.52,0,0,0-22.28-34.33,235.59,235.59,0,0,0-27.85-29.8,214.81,214.81,0,0,0-33.3-24.65,184.46,184.46,0,0,0-18.89-9.87,158.89,158.89,0,0,0-20.55-7.74,149,149,0,0,0-22.32-4.89,123.9,123.9,0,0,0-23.93-.93,115.72,115.72,0,0,0-12.33,1.39c-2.06.34-4.12.76-6.18,1.22l-3.07.75c-1,.26-1.93.54-2.89.81a119.51,119.51,0,0,0-22.31,9.07,111.27,111.27,0,0,0-20.14,13.84,108.74,108.74,0,0,0-16.41,17.82,114.89,114.89,0,0,0-19,42,129.68,129.68,0,0,0-2.5,43.28,138.19,138.19,0,0,0,32.13,74.77,131.27,131.27,0,0,0,30,26A131.28,131.28,0,0,0,958.82,423a141.72,141.72,0,0,0,36.54,5,156,156,0,0,0,35.43-3.86,215.14,215.14,0,0,1-33.55-7.94,146.36,146.36,0,0,1-29.93-13.58,119.57,119.57,0,0,1-13-9,109.6,109.6,0,0,1-28.88-34.43,102.3,102.3,0,0,1-11.92-54.41,81.4,81.4,0,0,1,5.63-25.13,58.61,58.61,0,0,1,12.37-19.18,47.18,47.18,0,0,1,17.11-11.12,53.47,53.47,0,0,1,10.15-2.74c.44-.06.92-.16,1.31-.21l1.15-.15c.78-.08,1.56-.16,2.36-.2a46.9,46.9,0,0,1,4.9,0,71,71,0,0,1,21.76,4.87,110.87,110.87,0,0,1,11.5,5.21,128.11,128.11,0,0,1,11.41,6.78,175,175,0,0,1,40.73,38.16c11.66,14.89,21,31.54,26.71,48.56s7.63,34.3,4.88,50.27-10.07,30.91-21.81,44.13a131.26,131.26,0,0,1-20.34,18.38l-2.91,2.08c-.75.52-1.45,1-2.23,1.48-1.52,1-3.14,1.89-4.85,2.75a76.16,76.16,0,0,1-11.19,4.53,119.9,119.9,0,0,1-26.29,5,200,200,0,0,1-28.59.33,243.23,243.23,0,0,1-28.83-3.35,171.17,171.17,0,0,1-27.07-6.93l-1.55-.57c-.5-.18-1.14-.47-1.7-.7l-3.49-1.48c-2.3-1-4.6-2.07-6.87-3.16q-6.81-3.27-13.41-7a196.06,196.06,0,0,1-67.57-63.91c-3-4.58-5.87-9.29-8.53-14.16s-5.23-9.88-7.64-15-4.67-10.54-6.74-16a158.37,158.37,0,0,0-5.4-16.42h0V330a94.28,94.28,0,0,0-1.75,11.63q-2.19,13.82-4.76,27.28-3.63,19.15-8.11,37.7A553.82,553.82,0,0,1,751.69,478a366.78,366.78,0,0,1-32,64,280.07,280.07,0,0,1-43.62,53.32A285.69,285.69,0,0,1,620.78,636a387.85,387.85,0,0,1-65,29.07c-23,8-47.14,14.46-72,20.13-12.46,2.83-25.11,5.46-37.94,8s-25.84,5-39.07,7.89a285.86,285.86,0,0,0,38.93,10.8,348.85,348.85,0,0,0,40.08,6,354.74,354.74,0,0,0,40.92,1.35A338.81,338.81,0,0,0,568,715.53,294.26,294.26,0,0,0,649.17,691a262,262,0,0,0,71.38-49.61,267,267,0,0,0,51.27-70,299.45,299.45,0,0,0,27.1-80.14A335.62,335.62,0,0,0,804,450.07q.44-7.2.56-14.39c.28.59.55,1.19.84,1.77a193.91,193.91,0,0,0,20.42,32.66,207.85,207.85,0,0,0,26.74,28.46c4.9,4.33,10,8.41,15.28,12.3,2.62,2,5.31,3.79,8,5.64l4.1,2.68c.7.46,1.32.88,2.1,1.36l2.3,1.4a175,175,0,0,0,37.8,16.79,202,202,0,0,0,39.32,8.07,209.08,209.08,0,0,0,40.51.31,188.29,188.29,0,0,0,41.45-8.38,154.58,154.58,0,0,0,20.8-8.52c3.44-1.74,6.87-3.62,10.24-5.7,1.69-1,3.38-2.15,5-3.25l4.16-2.9a206.2,206.2,0,0,0,31.44-27.32,173,173,0,0,0,13.75-16.67,163.55,163.55,0,0,0,11.76-18.66,155.85,155.85,0,0,0,15.35-42A164.12,164.12,0,0,0,1159.12,369.64Z"/><path class="cls-1" d="M412.93,604.45a86,86,0,0,0,10.77,4.95,91.44,91.44,0,0,0,22.81,5.39,110.68,110.68,0,0,0,22.59,0,140.64,140.64,0,0,0,21.28-4,196.7,196.7,0,0,0,38.29-15,282.91,282.91,0,0,0,33.84-20.59A368.3,368.3,0,0,0,593,551.06a446.45,446.45,0,0,0,53.22-55.58A424.58,424.58,0,0,0,689.37,431a332.51,332.51,0,0,0,16.86-36.09,260.91,260.91,0,0,0,12.18-39.53,184.71,184.71,0,0,0,4.47-44.09,138.56,138.56,0,0,0-2.63-23.9,120.92,120.92,0,0,0-7.57-24.4,108.75,108.75,0,0,0-13.42-23,98.92,98.92,0,0,0-20.07-20,88.52,88.52,0,0,0-27.34-13.64,92.69,92.69,0,0,0-29.3-3.71,112.51,112.51,0,0,0-26.26,4.06A143.58,143.58,0,0,0,573.76,215a203.53,203.53,0,0,0-37.12,22.91,287.42,287.42,0,0,0-30.47,27.17q-7,7.14-13.54,14.58t-12.55,15.17a392.64,392.64,0,0,0-41.35,65.51A388.45,388.45,0,0,0,411.09,432a318.8,318.8,0,0,0-11.59,75.7,249.47,249.47,0,0,0,1.2,32q-2.13-3.33-4.09-6.88c-.62-1.18-1.3-2.35-1.91-3.56l-1.82-3.63a58.51,58.51,0,0,1-2.83-6.62,141.51,141.51,0,0,1-4.45-15.74c-1.28-5.53-2.27-11.23-3.27-17-1.9-11.56-3.39-23.38-4.72-35.3s-2.49-23.93-3.7-36.06h0c-1.72,5.86-3.17,11.78-4.5,17.72-.54,2.36-1,4.73-1.53,7.1a529,529,0,0,1-16.38,51.89A290.39,290.39,0,0,1,335.58,527a168.14,168.14,0,0,1-9.77,15.92,101.55,101.55,0,0,1-11.23,13.56,54.55,54.55,0,0,1-12.41,9.45,33.42,33.42,0,0,1-6.27,2.59,27.58,27.58,0,0,1-3.09.73c-.51.1-1,.17-1.53.24s-1.32.19-2,.26c-5.18.62-9.83.32-12.54-.75a7.87,7.87,0,0,1-2.92-1.79,11.42,11.42,0,0,1-1.84-2.52,36.52,36.52,0,0,1-3.59-10.63,99.36,99.36,0,0,1-1.65-15.84c-.19-5.71-.06-11.7.28-17.79s.88-12.29,1.57-18.54c1.39-12.52,3.32-25.22,5.46-38s4.55-25.59,7.06-38.44c5-25.7,10.39-51.54,15.8-77.44L301,328.59l2.05-9.73,1-4.87.55-2.71.58-2.93a198.75,198.75,0,0,0,3.23-49,164.66,164.66,0,0,0-3.66-25.66A145,145,0,0,0,296.39,208a127.87,127.87,0,0,0-14.24-24.67,115.29,115.29,0,0,0-20.74-21.55,107.85,107.85,0,0,0-57-23,114.84,114.84,0,0,0-30.18,1.12,130.48,130.48,0,0,0-27.57,7.91,161,161,0,0,0-44.56,28.14,218.8,218.8,0,0,0-32.52,36q-6.88,9.56-12.82,19.4c-4,6.55-7.59,13.22-11,19.91q-2.55,5-4.93,10.09t-4.53,10.18Q32,281.7,28.24,292,20.8,312.59,15.43,333.4c-1.81,6.93-3.45,13.87-5,20.81s-2.85,13.9-4.12,20.84a374.16,374.16,0,0,0-5.65,43.2c-.24,3.7-.43,7.41-.55,11.13S0,436.85,0,440.6c0,7.5.46,15.06,1.18,22.65a190.8,190.8,0,0,0,9.91,45.88,128.91,128.91,0,0,0,10.63,22.7,93.72,93.72,0,0,0,16.89,21.08,74.32,74.32,0,0,0,11.56,8.72,64.73,64.73,0,0,0,13.55,6.27,61.86,61.86,0,0,0,28.86,2.35,71.39,71.39,0,0,0,13-3.3A84.89,84.89,0,0,0,117,561.76,103.42,103.42,0,0,0,136,548.15a149.19,149.19,0,0,0,15.09-15.93q3.39-4.19,6.47-8.49c2.07-2.86,4.05-5.76,5.91-8.73a225.25,225.25,0,0,0,18.92-36.74c-9.86,9.48-19.74,18.64-30,26.87-5.16,4.09-10.33,8-15.67,11.49a129.45,129.45,0,0,1-16.12,9.3,79.59,79.59,0,0,1-16,5.93A40.67,40.67,0,0,1,90.16,533,22.81,22.81,0,0,1,79.7,529.1a28.83,28.83,0,0,1-7.49-7.92,53,53,0,0,1-5.76-11.91c-.79-2.26-1.49-4.64-2.1-7.11s-1.15-5-1.6-7.63a135.17,135.17,0,0,1-1.67-16.31c-.28-5.6-.23-11.32,0-17.1A262.64,262.64,0,0,1,65.32,426q1.67-8.84,3.78-17.68c.72-3,1.46-5.8,2.27-8.94s1.6-6.15,2.42-9.21c1.68-6.11,3.4-12.19,5.27-18.2s3.73-12,5.75-17.88c4.09-11.77,8.4-23.36,13.29-34.51,9.61-22.34,21.09-43.3,34.5-61,3.38-4.38,6.82-8.58,10.41-12.49,1.81-1.92,3.61-3.83,5.47-5.61s3.68-3.54,5.56-5.17a88.74,88.74,0,0,1,22.86-14.85,46,46,0,0,1,20.7-4.13,31.28,31.28,0,0,1,16.76,6,44.44,44.44,0,0,1,13.56,16.77,78.39,78.39,0,0,1,7.13,26.15,124.7,124.7,0,0,1-.86,31l-.31,2-.36,2.22-.84,5-1.68,10c-1.12,6.67-2.14,13.36-3.18,20.05-4.08,26.79-7.58,53.77-10,81.09-1.18,13.67-2.14,27.41-2.68,41.29s-.73,27.87-.27,42.12a299.58,299.58,0,0,0,4.25,43.87,140.73,140.73,0,0,0,6.27,23.47,87.27,87.27,0,0,0,5.68,12.38,63.76,63.76,0,0,0,9,12.42,50.48,50.48,0,0,0,13.51,10.28,48.92,48.92,0,0,0,15.86,5,58.69,58.69,0,0,0,14.65.16,80.56,80.56,0,0,0,12.67-2.47c1-.27,1.94-.55,2.94-.85s2.22-.69,3.31-1.09a63.86,63.86,0,0,0,6.35-2.67,68.86,68.86,0,0,0,11.34-7A84.09,84.09,0,0,0,337.81,576a122.91,122.91,0,0,0,11.55-19.46,178.47,178.47,0,0,0,8.15-20c1.44-4.22,2.73-8.46,3.92-12.69.08.61.17,1.23.26,1.85a81.42,81.42,0,0,0,2.2,10.62l1.42,4.75c.48,1.58,1,3.15,1.57,4.72A135.48,135.48,0,0,0,375,564.48a106.75,106.75,0,0,0,11.75,17.92,91.41,91.41,0,0,0,16.34,15.71c1.57,1.14,3.15,2.28,4.81,3.32S411.22,603.48,412.93,604.45Zm22.12-91.19a445.47,445.47,0,0,1,25.37-63,530.81,530.81,0,0,1,33.44-58.35,492.72,492.72,0,0,1,40-52.79q5.37-6.17,11-12t11.34-11.35A239.7,239.7,0,0,1,580,295.89a137.27,137.27,0,0,1,24.25-14.28c7.83-3.5,15.21-5.28,20.37-5.34a19.6,19.6,0,0,1,6.2.75,15.08,15.08,0,0,1,4.66,2.33,25.92,25.92,0,0,1,5.26,5.29,39,39,0,0,1,2.59,3.71,45.24,45.24,0,0,1,2.17,4.16,48.56,48.56,0,0,1,3.27,9.8,69.54,69.54,0,0,1,1.62,11.75,100.82,100.82,0,0,1-.09,13.21c-.33,4.59-1,9.32-1.77,14.13a204.76,204.76,0,0,1-7.6,29.51,294.37,294.37,0,0,1-11.86,29.76A391.81,391.81,0,0,1,596.23,458a402.78,402.78,0,0,1-42.12,51.79c-15.44,15.88-32.26,30.37-50.22,41.59a149.08,149.08,0,0,1-27.45,13.67c-9.24,3.33-18.43,5.28-27,5.33a48.39,48.39,0,0,1-23.93-5.83c-.75-.41-1.49-.87-2.23-1.32q1.32-8.43,3-16.67Q429.94,529.58,435.05,513.26Z"/><path class="cls-2" d="M869.48,129.47c26.46,6.65,59.78-2.44,58-57.2-1.71-53.09-72.5-43.43-84.4-11.5S843,122.82,869.48,129.47Z"/><path class="cls-2" d="M72,93.22l1.6-.43c10-2.66,19.49-5.87,29.05-8.75s19-5.78,28.6-8.32,19.18-4.85,28.9-6.73a226.15,226.15,0,0,1,29.48-3.93c19.82-1.24,40,.3,59.78,6.5a138.86,138.86,0,0,1,29.29,13,165.13,165.13,0,0,1,27.76,20.93c-4.69-23.92-18.83-47-38.89-64.43l-3.8-3.24c-1.28-1.08-2.63-2-3.95-3.07s-2.67-2-4-3L251.64,29c-1.41-.91-2.81-1.87-4.24-2.74l-4.35-2.54c-1.47-.8-2.93-1.7-4.43-2.43L234.1,19A180.66,180.66,0,0,0,196,5.54,212.45,212.45,0,0,0,156.09.13a202.32,202.32,0,0,0-39.92,2.51A198.82,198.82,0,0,0,77.84,12.88c-12.3,4.75-24.21,10.55-35,18.19A34.88,34.88,0,0,0,72,93.22Z"/></g></g></svg>