<svg xmlns="http://www.w3.org/2000/svg" viewBox="0 0 472.95 293.41"><defs><style>.cls-1{fill:#fff;}.cls-2{fill:#ed9a00;}</style></defs><g id="Layer_2" data-name="Layer 2"><g id="Layer_1-2" data-name="Layer 1"><path class="cls-1" d="M472.81,150.78a75.62,75.62,0,0,0-3.11-17.23,87.11,87.11,0,0,0-6.48-15.7,94.86,94.86,0,0,0-20.46-26.16,87.94,87.94,0,0,0-13.58-10.06,76.81,76.81,0,0,0-7.7-4,65.08,65.08,0,0,0-8.39-3.16,60.2,60.2,0,0,0-9.1-2,50,50,0,0,0-9.76-.38,48.06,48.06,0,0,0-5,.56c-.84.14-1.68.32-2.52.5l-1.26.31c-.41.1-.78.22-1.17.33a48.41,48.41,0,0,0-9.1,3.7,45.72,45.72,0,0,0-8.22,5.64,44.58,44.58,0,0,0-6.69,7.27,46.92,46.92,0,0,0-7.77,17.12,52.85,52.85,0,0,0-1,17.65,56.42,56.42,0,0,0,13.1,30.51,53.75,53.75,0,0,0,12.24,10.59,54.53,54.53,0,0,0,7,3.7,56.47,56.47,0,0,0,7.32,2.6,57.57,57.57,0,0,0,14.9,2A63.49,63.49,0,0,0,420.46,173a87.19,87.19,0,0,1-13.68-3.24,59.39,59.39,0,0,1-12.21-5.54,47.26,47.26,0,0,1-5.31-3.68,43.58,43.58,0,0,1-4.65-4.22,44.2,44.2,0,0,1-7.12-9.82,41.75,41.75,0,0,1-4.87-22.19,33.32,33.32,0,0,1,2.3-10.25,23.91,23.91,0,0,1,5-7.83,19.37,19.37,0,0,1,7-4.53,21.91,21.91,0,0,1,4.14-1.12l.54-.08.47-.07,1-.08a19,19,0,0,1,2,0,28.74,28.74,0,0,1,8.87,2,46.22,46.22,0,0,1,4.7,2.13,50.69,50.69,0,0,1,4.65,2.76,71.31,71.31,0,0,1,16.61,15.57,67,67,0,0,1,10.9,19.81,42.17,42.17,0,0,1,2,20.5,36.07,36.07,0,0,1-8.9,18,53.19,53.19,0,0,1-8.3,7.5l-1.18.85c-.31.21-.59.41-.91.6-.62.39-1.28.77-2,1.12a30.35,30.35,0,0,1-4.56,1.85,49,49,0,0,1-10.73,2.05,82.26,82.26,0,0,1-11.66.13,100.3,100.3,0,0,1-11.76-1.36,70.44,70.44,0,0,1-11-2.83l-.63-.23c-.21-.07-.47-.19-.7-.29l-1.42-.6c-.94-.42-1.87-.84-2.8-1.29-1.85-.89-3.68-1.84-5.47-2.86a80,80,0,0,1-27.56-26.07c-1.21-1.87-2.4-3.79-3.48-5.78s-2.14-4-3.12-6.12-1.9-4.3-2.75-6.53a66.39,66.39,0,0,0-2.2-6.7h0v0a39.73,39.73,0,0,0-.72,4.75Q320,145,319,150.47q-1.48,7.8-3.31,15.37a226.4,226.4,0,0,1-9,29.12,150,150,0,0,1-13.05,26.1,114.52,114.52,0,0,1-17.8,21.74,116.14,116.14,0,0,1-22.55,16.62,158.36,158.36,0,0,1-26.52,11.86,274.43,274.43,0,0,1-29.39,8.21q-7.62,1.72-15.48,3.27c-5.23,1.05-10.54,2-15.94,3.22a117.74,117.74,0,0,0,15.89,4.41,145.05,145.05,0,0,0,33,3,139.62,139.62,0,0,0,16.86-1.5,120,120,0,0,0,33.12-10,107,107,0,0,0,29.12-20.23,109.07,109.07,0,0,0,20.91-28.55,122,122,0,0,0,11.05-32.69A135.17,135.17,0,0,0,328,183.59c.12-2,.19-3.92.23-5.87.11.24.22.48.34.72a78.44,78.44,0,0,0,8.33,13.32,84.27,84.27,0,0,0,10.91,11.61c2,1.77,4.08,3.43,6.23,5,1.07.8,2.17,1.54,3.27,2.3l1.67,1.09c.29.19.54.36.86.55l.93.58a71.48,71.48,0,0,0,15.42,6.84,82.64,82.64,0,0,0,16,3.3,85.25,85.25,0,0,0,16.53.12,76.92,76.92,0,0,0,16.9-3.41,64.29,64.29,0,0,0,8.49-3.48c1.4-.71,2.8-1.48,4.18-2.33.68-.41,1.37-.87,2-1.32l1.7-1.18a84.19,84.19,0,0,0,12.82-11.15,68.71,68.71,0,0,0,5.61-6.8,65.14,65.14,0,0,0,4.8-7.61,63.41,63.41,0,0,0,6.26-17.11A66.77,66.77,0,0,0,472.81,150.78Z"/><path class="cls-1" d="M168.44,246.56a34.87,34.87,0,0,0,4.39,2,37.57,37.57,0,0,0,9.3,2.2,45.79,45.79,0,0,0,9.22,0,56.66,56.66,0,0,0,8.68-1.63A80,80,0,0,0,215.65,243a115,115,0,0,0,13.8-8.39,153.27,153.27,0,0,0,12.46-9.82,181.57,181.57,0,0,0,21.7-22.67A173.29,173.29,0,0,0,281.2,175.8a134.68,134.68,0,0,0,6.87-14.72A105.49,105.49,0,0,0,293,145a75.13,75.13,0,0,0,1.83-18,56.38,56.38,0,0,0-1.08-9.75,48.71,48.71,0,0,0-3.08-10,44.75,44.75,0,0,0-2.44-4.84,45.6,45.6,0,0,0-3-4.55A39.87,39.87,0,0,0,277,89.71a36.12,36.12,0,0,0-11.15-5.57,37.8,37.8,0,0,0-11.95-1.51,45.56,45.56,0,0,0-10.71,1.66A57.91,57.91,0,0,0,234,87.7,83.4,83.4,0,0,0,218.9,97a116.62,116.62,0,0,0-12.43,11.08q-2.86,2.92-5.52,5.95c-1.77,2-3.47,4.09-5.12,6.19a161.8,161.8,0,0,0-28.15,55.94A130.28,130.28,0,0,0,163,207.08a99.65,99.65,0,0,0,.49,13c-.58-.9-1.14-1.84-1.67-2.8-.25-.49-.53-1-.78-1.45l-.74-1.48a22.83,22.83,0,0,1-1.15-2.7,55.81,55.81,0,0,1-1.82-6.42c-.52-2.26-.93-4.59-1.33-6.94-.78-4.71-1.39-9.54-1.93-14.4s-1-9.76-1.51-14.71h0c-.7,2.39-1.29,4.81-1.84,7.23-.21,1-.42,1.93-.62,2.9a217,217,0,0,1-6.68,21.16,118.09,118.09,0,0,1-6.5,14.44,68.68,68.68,0,0,1-4,6.5,41.55,41.55,0,0,1-4.58,5.53,22.62,22.62,0,0,1-5.06,3.85,13.76,13.76,0,0,1-2.56,1.06,11.51,11.51,0,0,1-1.26.3l-.63.1-.79.1a11.6,11.6,0,0,1-5.12-.31,3.08,3.08,0,0,1-1.19-.73,4.65,4.65,0,0,1-.75-1A14.89,14.89,0,0,1,109.5,226a40,40,0,0,1-.68-6.46c-.08-2.33,0-4.77.12-7.26s.35-5,.63-7.56c.57-5.11,1.36-10.29,2.23-15.49s1.86-10.44,2.88-15.68c2-10.48,4.24-21,6.45-31.59l1.66-7.93.84-4,.42-2,.23-1.11.23-1.19a80.77,80.77,0,0,0,1.32-20,66.16,66.16,0,0,0-1.49-10.47,59.9,59.9,0,0,0-3.44-10.5,52.47,52.47,0,0,0-5.81-10.07A47.42,47.42,0,0,0,106.63,66,44,44,0,0,0,83.4,56.59,46.72,46.72,0,0,0,71.09,57a54.09,54.09,0,0,0-11.24,3.23A65.64,65.64,0,0,0,41.67,71.75,88.88,88.88,0,0,0,28.4,86.44q-2.8,3.89-5.23,7.91c-1.62,2.67-3.09,5.39-4.49,8.12q-1,2.06-2,4.12t-1.85,4.15Q13,114.9,11.52,119.1q-3,8.41-5.23,16.9c-.73,2.82-1.4,5.65-2,8.48S3.1,150.15,2.58,153a149.31,149.31,0,0,0-2.3,17.62c-.1,1.51-.18,3-.23,4.54s-.06,3,0,4.57c0,3.06.19,6.15.48,9.24a78,78,0,0,0,4.05,18.72,52.64,52.64,0,0,0,4.33,9.26,38.81,38.81,0,0,0,6.89,8.6,30,30,0,0,0,4.72,3.55A26,26,0,0,0,26,231.65a25.2,25.2,0,0,0,11.77,1,29.37,29.37,0,0,0,5.3-1.35,33.68,33.68,0,0,0,4.67-2.12,41.3,41.3,0,0,0,7.73-5.55,61.31,61.31,0,0,0,6.15-6.49q1.38-1.71,2.64-3.47c.85-1.16,1.65-2.35,2.41-3.56a92,92,0,0,0,7.72-15c-4,3.86-8,7.6-12.24,11-2.1,1.66-4.22,3.26-6.39,4.68a52.39,52.39,0,0,1-6.58,3.8,32,32,0,0,1-6.54,2.41,16.64,16.64,0,0,1-5.86.46,9.43,9.43,0,0,1-4.27-1.58,11.74,11.74,0,0,1-3.06-3.23,21.53,21.53,0,0,1-2.34-4.86,29.83,29.83,0,0,1-.86-2.9c-.26-1-.47-2-.65-3.11a56.67,56.67,0,0,1-.69-6.65c-.11-2.28-.09-4.62,0-7a106,106,0,0,1,1.71-14.33c.46-2.41,1-4.81,1.55-7.22.29-1.21.59-2.36.92-3.64s.65-2.51,1-3.76c.68-2.49,1.39-5,2.15-7.42s1.52-4.89,2.35-7.3c1.66-4.8,3.42-9.52,5.42-14.07a119.83,119.83,0,0,1,14.07-24.88c1.38-1.78,2.78-3.5,4.25-5.09.73-.79,1.47-1.57,2.22-2.29s1.51-1.45,2.28-2.11a36.09,36.09,0,0,1,9.32-6.06,18.68,18.68,0,0,1,8.44-1.68,12.77,12.77,0,0,1,6.84,2.44A18.13,18.13,0,0,1,93,97.52a32.08,32.08,0,0,1,2.91,10.67,51.06,51.06,0,0,1-.35,12.65l-.13.83-.15.9-.34,2-.68,4.08c-.46,2.72-.88,5.45-1.3,8.18C91.26,147.8,89.84,158.8,88.86,170c-.48,5.57-.88,11.18-1.09,16.84s-.3,11.37-.11,17.18a121,121,0,0,0,1.73,17.89,58.1,58.1,0,0,0,2.55,9.58,37.49,37.49,0,0,0,2.32,5.05A26.23,26.23,0,0,0,98,241.55a20,20,0,0,0,12,6.25,24.47,24.47,0,0,0,6,.07,34.06,34.06,0,0,0,5.17-1l1.2-.35c.45-.14.91-.28,1.35-.45a24.8,24.8,0,0,0,2.59-1.09,28.24,28.24,0,0,0,4.63-2.84,34.67,34.67,0,0,0,7-7.19,50.36,50.36,0,0,0,4.71-7.94,72.36,72.36,0,0,0,3.32-8.16c.59-1.72,1.11-3.44,1.6-5.17,0,.25.07.5.1.75a35.21,35.21,0,0,0,.9,4.33l.58,1.94c.2.65.42,1.29.64,1.93a55.64,55.64,0,0,0,3.3,7.63,43.37,43.37,0,0,0,4.8,7.31,36.89,36.89,0,0,0,6.66,6.41c.64.47,1.29.93,2,1.36S167.74,246.16,168.44,246.56Zm9-37.2a181.17,181.17,0,0,1,10.35-25.69,215.56,215.56,0,0,1,13.64-23.8,199.55,199.55,0,0,1,16.33-21.53q2.19-2.52,4.47-4.9c1.51-1.6,3.05-3.15,4.62-4.63a97.49,97.49,0,0,1,9.71-8.11,55.69,55.69,0,0,1,9.89-5.83,22.65,22.65,0,0,1,8.31-2.18,7.82,7.82,0,0,1,2.53.31,5.94,5.94,0,0,1,1.9,1,10.55,10.55,0,0,1,2.14,2.15,17.93,17.93,0,0,1,1.06,1.52c.31.55.62,1.09.89,1.7a19.76,19.76,0,0,1,1.33,4,28.68,28.68,0,0,1,.66,4.79,40.42,40.42,0,0,1,0,5.38c-.13,1.88-.39,3.81-.72,5.77a83.22,83.22,0,0,1-3.1,12,118,118,0,0,1-4.84,12.14,159.68,159.68,0,0,1-13.38,23.4A163.34,163.34,0,0,1,226,208a110.81,110.81,0,0,1-20.48,17,60.58,60.58,0,0,1-11.2,5.58,33.49,33.49,0,0,1-11,2.17,19.68,19.68,0,0,1-9.77-2.38c-.3-.16-.6-.35-.91-.53.36-2.3.77-4.56,1.25-6.8Q175.37,216,177.46,209.36Z"/><path class="cls-2" d="M354.67,52.81c10.79,2.71,24.38-1,23.66-23.33-.7-21.66-29.57-17.72-34.43-4.69S343.87,50.1,354.67,52.81Z"/><path class="cls-2" d="M29.38,38l.65-.17c4.08-1.08,7.95-2.4,11.86-3.57s7.76-2.36,11.66-3.39,7.82-2,11.79-2.75a93.28,93.28,0,0,1,12-1.6,67,67,0,0,1,24.39,2.65,56.94,56.94,0,0,1,12,5.3A67.8,67.8,0,0,1,125,43c-1.92-9.76-7.68-19.16-15.87-26.28l-1.55-1.32c-.52-.44-1.07-.84-1.6-1.26L104.35,13l-1.7-1.13c-.58-.37-1.15-.76-1.73-1.12l-1.78-1c-.6-.33-1.19-.7-1.81-1l-1.84-.92A73.77,73.77,0,0,0,80,2.26,87.19,87.19,0,0,0,63.67.05a81.92,81.92,0,0,0-16.28,1A79.84,79.84,0,0,0,31.75,5.26a64.61,64.61,0,0,0-14.26,7.41A14.23,14.23,0,0,0,29.38,38Z"/></g></g></svg>